<?xml version="1.0" standalone="no"?>
<!DOCTYPE svg PUBLIC "-//W3C//DTD SVG 20010904//EN"
 "http://www.w3.org/TR/2001/REC-SVG-20010904/DTD/svg10.dtd">
<svg version="1.0" xmlns="http://www.w3.org/2000/svg"
 width="512.000000pt" height="512.000000pt" viewBox="0 0 512.000000 512.000000"
 preserveAspectRatio="xMidYMid meet">
<metadata>
Created by potrace 1.14, written by Peter Selinger 2001-2017
</metadata>
<g transform="translate(0.000000,512.000000) scale(0.100000,-0.100000)"
fill="#000000" stroke="none">
<path d="M2519 5050 c-90 -15 -179 -73 -232 -153 -70 -103 -67 -54 -67 -1128
0 -940 1 -969 20 -1030 60 -191 261 -299 451 -243 112 34 196 111 242 224 l22
55 0 995 0 995 -23 57 c-28 70 -103 155 -169 190 -26 14 -75 31 -107 37 -66
12 -71 12 -137 1z"/>
<path d="M1404 4196 c-97 -24 -236 -126 -414 -305 -334 -335 -552 -774 -625
-1257 -20 -128 -27 -401 -15 -529 77 -767 536 -1441 1222 -1791 152 -77 272
-124 422 -164 410 -111 865 -104 1259 20 97 31 99 32 92 58 -3 14 -56 163
-117 330 -92 249 -114 302 -127 297 -52 -21 -246 -65 -328 -76 -127 -16 -369
-6 -490 20 -544 116 -988 506 -1158 1014 -63 189 -79 289 -79 502 0 205 14
300 70 478 83 261 262 526 474 699 213 174 235 207 235 363 0 95 -2 103 -34
163 -19 35 -54 81 -79 102 -78 70 -208 101 -308 76z"/>
<path d="M4465 3398 c-27 -17 -159 -93 -292 -170 l-242 -140 45 -90 c110 -220
177 -535 159 -745 -7 -72 -6 -73 17 -73 12 -1 167 -14 343 -29 176 -16 322
-27 325 -24 3 2 5 91 4 196 -1 284 -38 502 -129 752 -45 126 -155 355 -169
354 -6 0 -33 -14 -61 -31z"/>
<path d="M4055 1828 c-82 -250 -248 -502 -446 -675 -57 -49 -161 -125 -247
-178 -2 -2 298 -525 334 -583 l14 -22 68 42 c397 247 725 642 896 1079 45 116
83 236 75 242 -5 4 -652 178 -660 177 -4 0 -19 -37 -34 -82z"/>
</g>
</svg>
